<?xml version="1.0" encoding="utf-8"?>
<!-- Generator: Adobe Illustrator 19.0.0, SVG Export Plug-In . SVG Version: 6.00 Build 0)  -->
<svg version="1.1" xmlns="http://www.w3.org/2000/svg" xmlns:xlink="http://www.w3.org/1999/xlink" x="0px" y="0px"
	 viewBox="0 0 1080 584.8" style="enable-background:new 0 0 1080 584.8;" xml:space="preserve">
<style type="text/css">
	.st0{display:none;}
	.st1{display:inline;}
	.st2{fill:#414042;}
	.st3{fill:#00AEEF;}
</style>
<g id="BeeHunter" class="st0">
	<g id="XMLID_2_" class="st1">
		<g id="XMLID_168_">
			<polygon id="XMLID_185_" class="st2" points="341.8,266.2 356.2,240.1 264.5,240.1 250.6,339.7 262,333.1 285.6,346.7 
				285.6,360.2 328.5,360.2 343,334.2 285.1,334.2 288.6,310.1 335.6,310.1 338.3,290.2 291.3,290.2 294.7,266.2 			"/>
			<polygon id="XMLID_184_" class="st2" points="185.6,310.1 232.6,310.1 235.3,290.2 188.3,290.2 191.7,266.2 238.8,266.2 
				253.2,240.1 180.6,240.1 180.6,256.9 157.3,270.4 144.7,360.2 225.6,360.2 240,334.2 182.1,334.2 			"/>
			<path id="XMLID_180_" class="st2" d="M142.5,288.2l3.3-24.2l-12.3-7.1v-16.8h-76l-5.1,36.6h12.1l13.6,23.5l-13.6,23.5H45.8
				l-5.1,36.6h80.2c3,0,5.8-1.2,8.3-3.5c2.6-2.3,4.1-5.2,4.7-8.5l5.5-38.1v-0.9c0-2.4-1-4.4-2.9-6c-1.9-1.6-4.1-2.6-6.4-3.1
				c2.7-0.2,5.3-1.5,7.8-3.9C140.4,294,141.9,291.2,142.5,288.2z M102.1,334.2h-24l3.4-24h24L102.1,334.2z M108.3,290.2h-24l3.4-24
				h24L108.3,290.2z"/>
			<polygon id="XMLID_179_" class="st3" points="429.3,240.1 422.2,290.2 395.8,290.2 402.8,240.1 365.7,240.1 359.7,283.6 
				380.8,299.6 377.3,326.6 352.3,337.1 352.2,337 348.9,360.2 386,360.2 393,310.1 419.5,310.1 412.4,360.2 449.5,360.2 
				466.3,240.1 			"/>
			<polygon id="XMLID_178_" class="st3" points="543.6,240.1 531.2,327.9 545.7,318.9 567.9,330.9 580.6,240.1 			"/>
			<path id="XMLID_177_" class="st3" d="M503.9,334.2l13.2-94.1h-37.1l-15.3,108.1c0,0.2,0,0.5-0.1,0.7c-0.1,0.2-0.1,0.5-0.1,0.7
				c0,3,1.1,5.5,3.3,7.6c2.2,2.1,4.8,3.1,7.8,3.1h47.7l-0.8-26.1H503.9z"/>
			<path id="XMLID_172_" class="st3" d="M841.6,64.1L643.8,178.2v61.9h38.4c3,0,5.5,1.1,7.7,3.2c2.2,2.1,3.3,4.6,3.3,7.5v1.4
				l-15.1,108.1h-34.3v46.3l197.7,114.2l197.7-114.2V178.2L841.6,64.1z M757.8,360.2h-7.2l3.7-18.3l-19.8-17.4l-9.2,3.1l8.6-61.4
				h-31.8l3.6-26.1h100.6l-3.6,26.1H771L757.8,360.2z M888.9,360.2h-88.6l16.8-120.2h9.7l8.8,15.5l26.4,0.2l9.2-15.7h46.5
				l-15.6,26.1h-51.5l-3.4,24h51.5l-2.7,19.9h-51.5l-3.4,24h63.5L888.9,360.2z M1017.6,306.5c-2.8,2.4-5.9,3.6-9.2,3.6h-6.4
				l15.6,50.1h-32.8l-22.1-70h23.9l3.4-24h-26.3l-13.2,94.1h-37.1l16.8-120.2h58.9l0.6,22.6l23.2,12.6l14-8.6l-4.5,31.4
				C1022,301.3,1020.4,304.1,1017.6,306.5z"/>
			<polygon id="XMLID_171_" class="st3" points="643.8,276.3 643.8,342.6 653.2,276.3 			"/>
			<polygon id="XMLID_170_" class="st3" points="634,240.1 631.9,256.5 606.9,267 592.2,255.8 577.5,360.2 614.6,360.2 627.8,266.2 
				643.8,266.2 643.8,240.1 			"/>
			<polygon id="XMLID_169_" class="st3" points="641.4,360.2 643.8,360.2 643.8,342.6 			"/>
		</g>
	</g>
</g>
<g id="BeeClient">
	<g id="XMLID_16_">
		<g id="XMLID_15_">
			<polygon id="XMLID_36_" class="st3" points="161.2,334.1 185.2,334.1 188.7,310.1 164.6,310.1 			"/>
			<polygon id="XMLID_39_" class="st3" points="167.4,290.2 191.4,290.2 194.8,266.2 170.8,266.2 			"/>
			<path id="XMLID_51_" class="st3" d="M452.6,248.4c0.5-3.3,2.1-6.2,4.9-8.7c0.2-0.1,0.3-0.3,0.5-0.4l3.6,1.8v-62.9L263.7,64.1
				L65.9,178.2v228.3l197.8,114.2l197.8-114.2v-46.6h-12.6c-2.8,0-5.3-1-7.3-3.1c-2.1-2.1-3.1-4.6-3.1-7.7c0-0.7,0.1-1.2,0.2-1.6
				L452.6,248.4z M219.6,303.3c1.9,1.6,2.9,3.6,2.9,6v0.9l-5.5,38.1c-0.6,3.3-2.1,6.2-4.7,8.5c-2.6,2.3-5.4,3.5-8.3,3.5h-80.2
				l5.1-36.6h18.7l13.6-23.5l-13.6-23.5h-12.1l5.1-36.6h76v16.8l12.3,7.1l-3.3,24.2c-0.6,3.1-2.1,5.8-4.5,8.2
				c-2.5,2.3-5.1,3.6-7.8,3.9C215.5,300.6,217.6,301.7,219.6,303.3z M308.6,360.2h-80.8l12.6-89.9l23.3-13.5v-16.8h72.6l-14.4,26.1
				h-47l-3.4,24h47l-2.7,19.9h-47l-3.4,24h57.8L308.6,360.2z M421.4,290.2l-2.7,19.9h-47l-3.4,24H426l-14.4,26.1h-43v-13.6
				l-23.5-13.6l-11.5,6.6l13.9-99.6h91.7l-14.4,26.1h-47l-3.4,24H421.4z"/>
		</g>
		<g id="XMLID_40_">
			<polygon id="XMLID_42_" class="st3" points="562,334.9 591.4,351.8 591.4,359.9 637.8,359.9 630.3,333 581.8,333 595.5,236 
				560.6,236 545.4,344.5 			"/>
			<polygon id="XMLID_43_" class="st2" points="735.9,308.2 784.4,308.2 787.2,287.7 738.7,287.7 742.3,262.9 790.8,262.9 
				805.7,236 732.8,236 732.8,257.7 705.9,273.3 693.7,359.9 777.1,359.9 792,333 732.3,333 			"/>
			<polygon id="XMLID_44_" class="st3" points="674,257.7 674,236 663.1,236 645.7,359.9 680.6,359.9 693.4,268.9 			"/>
			<path id="XMLID_45_" class="st2" d="M907.1,239.2c-2-2.1-4.4-3.2-7.1-3.2h-82.7L800.4,357l20-11.6l15.2,8.8l12.8-91.4h24.8
				l-13.6,97h34.9l15.6-111.6V247C910.1,243.9,909.1,241.3,907.1,239.2z"/>
			<polygon id="XMLID_46_" class="st2" points="1013.9,253.8 992.8,241.6 992.8,236 922,236 918.3,262.9 948,262.9 934.4,359.9 
				969.3,359.9 982.9,262.9 1012.8,262.9 1014.1,253.7 			"/>
			<polygon id="XMLID_33_" class="st3" points="485.5,262.9 534,262.9 548.9,236 503,236 480.7,250.7 461.4,241.1 461.4,359.9 
				461.5,359.9 520.4,359.9 535.3,333 475.6,333 			"/>
		</g>
	</g>
</g>
</svg>
