<?xml version="1.0" encoding="utf-8"?>
<!-- Generator: Adobe Illustrator 19.0.0, SVG Export Plug-In . SVG Version: 6.00 Build 0)  -->
<svg version="1.1" xmlns="http://www.w3.org/2000/svg" xmlns:xlink="http://www.w3.org/1999/xlink" x="0px" y="0px"
	 viewBox="0 0 1080 538" style="enable-background:new 0 0 1080 538;" xml:space="preserve">
<style type="text/css">
	.st0{display:none;}
	.st1{display:inline;}
	.st2{fill:#FFFFFF;}
	.st3{fill:#414042;}
	.st4{fill:#00AEEF;}
	.st5{display:none;fill:#414042;}
</style>
<g id="Title" class="st0">
	<g id="XMLID_1_" class="st1">
		<path id="XMLID_366_" class="st2" d="M525.6-23.8C381-24.4,285.2,82.8,252.1,185.4c-10.4,32.2-8.9,65.1-4.9,97.8
			c4.8,38.5,10.1,77.1,16.7,115.3c7.4,42.2-4.6,77.9-32.5,109.1c-8.1,9.1-16.7,17.8-25.2,26.5c-11.5,11.6-12.5,27.1-2.3,38
			c10.5,11.2,26.8,11.4,38.6-0.3c11.1-11,21.9-22.3,32.1-34.1c37.5-43.6,50.4-93.8,40.9-150.6c-6.8-40.2-12-80.8-17.2-121.3
			c-3.8-30-0.3-59,12.2-87.3C353.5,80.7,448,22.9,554.6,28.5c79.5,4.1,139.1,42.1,185.2,104.4c13,17.5,24.5,36.1,36,54.7
			c23.6,38.2,52.6,71,90.2,96.1c4.2,2.8,8.6,5.6,13.3,7.6c12.4,5.3,26.6,0.2,33-11.5c6.3-11.5,3.9-26.5-7.4-33.3
			c-42.4-25.2-70.8-62.8-95.4-104.4c-23.1-39-51.1-74.4-86.5-103.2C670.1-4.1,609.4-24.1,525.6-23.8z"/>
		<path id="XMLID_365_" class="st2" d="M418.1,287.6c1,43.6,13.1,75.4,30.2,105.7c29.3,51.9,68.4,96.1,110.2,137.9
			c59.5,59.6,124.1,113.2,191.9,163c6.9,5,14.1,8.7,22.8,7.2c11-2,18.6-8.3,21.4-19.3c2.9-11.7-1.2-21-10.7-28.3
			c-27.2-20.9-54.8-41.4-81.3-63.2c-62-50.8-121.1-104.8-171.1-167.8C509,394.4,489.1,364.5,477,330c-9.4-26.7-7.3-52.4,5.3-77.4
			c21.1-41.8,67.8-52,104.7-23.1c13.8,10.8,22.9,24.9,30.2,40.6c18.5,40.1,39.3,79,69,111.9c21.6,23.9,44.8,46.9,69.9,67
			c38,30.5,78.3,58.2,117.8,86.9c9.4,6.9,19.6,7.5,29.5,1.6c9.8-5.8,13.6-14.9,12.3-26.1c-1-8.6-6.1-14.3-12.8-19.1
			c-31.8-22.9-63.7-45.6-95.1-68.9c-41-30.4-79-64.3-106-108.2c-14.7-23.8-27.3-49-40-74c-14.8-29-35.2-52.1-64.4-66.8
			c-66.9-33.7-141.7-2.7-168.3,70.3C422.9,260.9,420.4,278.5,418.1,287.6z"/>
		<path id="XMLID_364_" class="st2" d="M334.4,272.7c0,39.4,8.5,77.7,16.5,116c9.4,44.7,10.4,88.6-5.3,132.4
			c-13.5,37.7-37.1,64.5-75.7,76.9c-1.3,0.4-2.7,0.9-4,1.5c-14.2,5.8-20.8,19.1-16.3,32.9c4.4,13.5,18.6,21,32.9,16.5
			c39.1-12.4,72-33.8,93.1-69.9c29.1-49.6,40.7-103.3,32.9-160.3c-4.9-35.9-12.8-71.4-18.4-107.3c-5.1-32.5-6.2-65.2,6.7-96.4
			c31.7-76.4,142.3-136.1,239.9-63c31.1,23.3,54.2,53.7,69.5,89c20.3,47.1,51.3,85.6,90.2,117.8c25.3,21,52.3,39.8,78.9,59.2
			c9.1,6.6,19.3,6.4,28.8,0.3c9.3-5.9,12.8-14.8,11.5-25.6c-1.1-9.3-7.2-14.7-14.3-20.1c-27-20.3-54.4-40-80-61.9
			c-28.5-24.3-50.4-53.9-66-88.7c-22.6-50.4-55.4-93.2-103-122.8c-133-82.9-278.9,5.2-309.5,112.1c-5.6,19.7-7.2,40.5-10.7,60.9
			C333,272.4,333.7,272.6,334.4,272.7z"/>
		<path id="XMLID_363_" class="st2" d="M539-65.1c61.3,2,119.5,14.1,172.6,46.1C753,5.9,785.1,40.5,813.4,78.8
			c14.8,20.1,28.3,41.1,42.2,61.8c8.6,12.9,23.5,17,36.3,9.5c12.3-7.2,16.9-22.8,9.1-35.5C865.5,56.8,826.1,2.1,772.3-40.5
			c-51.1-40.5-109.8-63.3-174.1-71.4c-166.5-20.9-293.8,47-394.2,175.2c-5.7,7.2-8.9,15.2-6.5,24.5c2.6,10.2,9.2,17,19.5,19.3
			c11.3,2.5,20.3-1.6,27.7-10.5C259.5,79,273.7,60.7,290,44.6C343-7.7,404.9-44.7,479.1-58.3C498.8-61.9,519-62.9,539-65.1z"/>
		<path id="XMLID_362_" class="st2" d="M230.7-79.4c0.1,10.3,4.7,18.1,13.6,22.9c8.9,4.8,18.2,4.5,26.6-1.1
			c6.6-4.4,12.7-9.6,19-14.3c79.6-59.3,169.7-84.2,268.1-81.6c74.9,2,144.2,22,206.4,64.7c21.8,15,41.7,32.3,58.5,52.9
			c10.1,12.4,26,14.4,37.7,5c11.6-9.2,13.2-25.4,3-37.9c-27.7-34.2-61.8-60.7-100-82.2c-73.9-41.7-153.9-57.6-238.1-54.7
			c-105.7,3.7-200.3,37.6-283,104.1C235.3-95.9,230.5-89.1,230.7-79.4z"/>
		<path id="XMLID_361_" class="st2" d="M544.9,265.9c-21.2-0.3-34.2,17.6-27.2,35.2c5.3,13.4,12,26.3,19.2,38.8
			c31.7,54.6,72.3,102.3,116.5,147C706.8,540.6,765.3,588.2,827,632c11.3,8,22.6,8.4,32.4,1.5c9-6.3,14-18.3,9.6-28.5
			c-2.7-6.4-7.9-12.6-13.5-16.6c-48.1-34.8-94.5-71.6-137.8-112.2c-45.6-42.9-88-88.6-122.1-141.3c-10.9-16.8-19.8-35-29.1-52.8
			C561.2,271.9,553.7,266.3,544.9,265.9z"/>
		<path id="XMLID_360_" class="st2" d="M214.4,316.3c0.8-53.3,4.6-97.4,22.2-139.3c5.7-13.7-0.6-28.3-13.8-34
			c-13.2-5.6-27.9-0.2-34.2,13.5c-12.5,27-18.6,55.9-22.3,85.2c-9.1,72.3-2.2,143.7,13.6,214.4c3.5,15.7,16.5,24.4,31.4,21.3
			c14.6-3,22.6-16.3,19.8-32.4c-4.1-23.1-8.9-46.2-11.9-69.5C216.4,353.1,215.5,330.4,214.4,316.3z"/>
		<path id="XMLID_359_" class="st2" d="M574.6,612.8c-27.5,1.3-49.4,13.5-66.5,34.6c-15.7,19.3-24.8,41.9-31.4,65.5
			c-3.7,13.3,4.5,26.9,17.5,30.9c13.4,4.2,27.5-2.7,32.5-16c3.5-9.3,6.1-19,10.5-27.8c4.3-8.5,9.3-17.1,15.8-24
			c10.9-11.5,23.5-15,39.1-5.7c20.5,12.2,37.1,28.8,52.7,46.6c7.5,8.6,16.6,12.6,28.1,9.5c17.7-4.9,25.8-25.8,14.3-40
			c-21.1-26.2-44.9-49.9-75.9-64.5c-11.3-5.3-24-7.5-36.1-11.2C575.1,611.4,574.9,612.1,574.6,612.8z"/>
		<path id="XMLID_358_" class="st2" d="M390.9,714.3c6.6-2.4,12-3.2,15.9-6c36.5-26.7,67.3-58.4,83.8-101.6
			c15.4-40.3,14.5-80.5-4.6-119.6c-6.8-13.9-19.2-19.4-32.1-15.4c-15.2,4.7-23.4,21.1-16.3,35.4c19.6,39.5,13,76.6-12.4,110.1
			c-13.5,17.8-31.3,32.6-47.9,47.9c-12.3,11.4-15.3,27.9-4.2,38.8C377.9,708.7,385.2,711,390.9,714.3z"/>
	</g>
</g>
<g id="Layer_2">
	<g id="XMLID_2_">
		<g id="XMLID_157_">
			<polygon id="XMLID_175_" class="st3" points="216.5,285.2 259.5,285.2 262,267 219,267 222.2,245.1 265.1,245.1 278.3,221.3 
				212,221.3 212,236.6 190.7,248.9 179.3,330.9 253,330.9 266.2,307.1 213.4,307.1 			"/>
			<path id="XMLID_171_" class="st3" d="M177.2,265.1l3-22.1l-11.2-6.5v-15.4H99.7L95,254.6h11.1l12.4,21.5l-12.4,21.5H89l-4.7,33.4
				h73.2c2.7,0,5.2-1.1,7.6-3.2c2.3-2.1,3.8-4.7,4.3-7.8l5-34.8v-0.8c0-2.2-0.9-4-2.7-5.5c-1.8-1.5-3.7-2.4-5.8-2.8
				c2.5-0.2,4.9-1.4,7.1-3.5C175.3,270.4,176.7,267.9,177.2,265.1z M140.4,307.1h-21.9l3.1-21.9h21.9L140.4,307.1z M146.1,267h-21.9
				l3.1-21.9h21.9L146.1,267z"/>
			<polygon id="XMLID_170_" class="st3" points="359.1,245.1 372.2,221.3 288.6,221.3 275.9,312.2 286.3,306.1 307.8,318.5 
				307.8,330.9 347,330.9 360.2,307.1 307.4,307.1 310.5,285.2 353.4,285.2 356,267 313,267 316.2,245.1 			"/>
			<polygon id="XMLID_169_" class="st4" points="438.9,221.3 432.5,267 408.4,267 414.8,221.3 381,221.3 375.4,260.9 394.7,275.6 
				391.5,300.2 368.7,309.8 368.6,309.7 365.6,330.9 399.5,330.9 405.9,285.2 430,285.2 423.6,330.9 457.4,330.9 472.8,221.3 			"/>
			<polygon id="XMLID_168_" class="st4" points="543.3,221.3 532,301.4 545.2,293.2 565.5,304.1 577.1,221.3 			"/>
			<path id="XMLID_167_" class="st4" d="M507.1,307.1l12.1-85.8h-33.8L471.4,320c0,0.2,0,0.4-0.1,0.6c-0.1,0.2-0.1,0.4-0.1,0.6
				c0,2.7,1,5,3.1,6.9c2,1.9,4.4,2.8,7.1,2.8h43.5l-0.7-23.8H507.1z"/>
			<polygon id="XMLID_166_" class="st5" points="634.8,165.7 814.2,62.2 993.7,165.7 993.7,372.6 814.2,476 634.8,372.6 			"/>
			<path id="XMLID_161_" class="st4" d="M815.2,60.6L634.8,164.8v56.5h35.1c2.7,0,5.1,1,7,2.9c2,1.9,3,4.2,3,6.8v1.3l-13.8,98.7
				h-31.3v42.3l180.5,104.2l180.5-104.2V164.8L815.2,60.6z M738.7,330.9h-6.6l3.3-16.7l-18.1-15.9l-8.4,2.8l7.9-56.1h-29l3.3-23.8
				h91.8l-3.3,23.8h-29L738.7,330.9z M858.4,330.9h-80.8l15.4-109.7h8.9l8,14.1l24.1,0.2l8.4-14.3h42.5l-14.3,23.8h-47l-3.1,21.9h47
				l-2.5,18.2h-47l-3.1,21.9h58L858.4,330.9z M975.8,281.9c-2.6,2.2-5.4,3.3-8.4,3.3h-5.8l14.3,45.7H946L925.8,267h21.8l3.1-21.9
				h-24l-12.1,85.8h-33.8l15.4-109.7h53.7l0.6,20.6l21.1,11.5l12.8-7.8l-4.1,28.7C979.9,277.1,978.4,279.7,975.8,281.9z"/>
			<polygon id="XMLID_160_" class="st4" points="634.7,254.3 634.7,314.8 643.2,254.3 			"/>
			<polygon id="XMLID_159_" class="st4" points="625.8,221.3 623.9,236.3 601,245.8 587.6,235.6 574.3,330.9 608.1,330.9 
				620.2,245.1 634.8,245.1 634.8,221.3 			"/>
			<polygon id="XMLID_158_" class="st4" points="632.4,330.9 634.7,330.9 634.7,314.8 			"/>
		</g>
	</g>
</g>
</svg>
